<svg xmlns="http://www.w3.org/2000/svg" viewBox="0 0 100 112" width="100" height="112" role="img" aria-labelledby="t d"><title id="t">Handyman Pros Florida</title><desc id="d">Handyman Pros Florida logo: orange-outlined black shield with two crossed royal blue wrenches and the stacked wordmark HANDYMAN PROS FLORIDA</desc><g transform="translate(0 0) scale(1)"><path d="M50 3 C38.5 11.2 23 14.6 5.5 14.6 V50 C5.5 80.5 25.5 99 50 109 C74.5 99 94.5 80.5 94.5 50 V14.6 C77 14.6 61.5 11.2 50 3 Z" fill="#FF7A00"/><path d="M50 12.2 C40 18.9 26.8 21.9 13 21.9 V50 C13 75.8 29.8 91.6 50 100.6 C70.2 91.6 87 75.8 87 50 V21.9 C73.2 21.9 60 18.9 50 12.2 Z" fill="#0A0A0A"/><g transform="translate(50 57.5) rotate(-45) scale(0.9)"><path d="M4.2 -35.62 A10.5 10.5 0 1 1 -4.2 -35.62 L-4.2 -24 A4.2 4.2 0 0 0 4.2 -24 Z M-3.9 -18 H3.9 V24.2 H-3.9 Z" fill="#1D4ED8"/><path d="M0 22.1 A6.4 6.4 0 1 1 0 34.9 A6.4 6.4 0 1 1 0 22.1 Z M0 26 A2.5 2.5 0 1 0 0 31 A2.5 2.5 0 1 0 0 26 Z" fill="#1D4ED8" fill-rule="evenodd"/></g><g transform="translate(50 57.5) rotate(45) scale(0.9)"><path d="M4.2 -35.62 A10.5 10.5 0 1 1 -4.2 -35.62 L-4.2 -24 A4.2 4.2 0 0 0 4.2 -24 Z M-3.9 -18 H3.9 V24.2 H-3.9 Z" fill="#1D4ED8" stroke="#0A0A0A" stroke-width="2.2" stroke-linejoin="round" paint-order="stroke"/><path d="M0 22.1 A6.4 6.4 0 1 1 0 34.9 A6.4 6.4 0 1 1 0 22.1 Z M0 26 A2.5 2.5 0 1 0 0 31 A2.5 2.5 0 1 0 0 26 Z" fill="#1D4ED8" fill-rule="evenodd" stroke="#0A0A0A" stroke-width="2.2" stroke-linejoin="round" paint-order="stroke"/></g></g></svg>
